<svg width="16" height="17" viewBox="0 0 16 17" fill="none" xmlns="http://www.w3.org/2000/svg">
<path d="M8 11C6.62 11 5.5 9.88 5.5 8.5C5.5 7.12 6.62 6 8 6C9.38 6 10.5 7.12 10.5 8.5C10.5 9.88 9.38 11 8 11ZM8 7C7.17333 7 6.5 7.67333 6.5 8.5C6.5 9.32667 7.17333 10 8 10C8.82667 10 9.5 9.32667 9.5 8.5C9.5 7.67333 8.82667 7 8 7Z" fill="white"/>
<path d="M10.14 15.2932C9.99998 15.2932 9.85998 15.2732 9.71998 15.2399C9.30665 15.1265 8.95998 14.8665 8.73998 14.4999L8.65998 14.3665C8.26665 13.6865 7.72665 13.6865 7.33331 14.3665L7.25998 14.4932C7.03998 14.8665 6.69331 15.1332 6.27998 15.2399C5.85998 15.3532 5.42665 15.2932 5.05998 15.0732L3.91331 14.4132C3.50665 14.1799 3.21331 13.7999 3.08665 13.3399C2.96665 12.8799 3.02665 12.4065 3.25998 11.9999C3.45331 11.6599 3.50665 11.3532 3.39331 11.1599C3.27998 10.9665 2.99331 10.8532 2.59998 10.8532C1.62665 10.8532 0.833313 10.0599 0.833313 9.08653V7.9132C0.833313 6.93987 1.62665 6.14653 2.59998 6.14653C2.99331 6.14653 3.27998 6.0332 3.39331 5.83987C3.50665 5.64653 3.45998 5.33987 3.25998 4.99987C3.02665 4.5932 2.96665 4.1132 3.08665 3.65987C3.20665 3.19987 3.49998 2.81987 3.91331 2.58653L5.06665 1.92653C5.81998 1.47987 6.81331 1.73987 7.26665 2.50653L7.34665 2.63987C7.73998 3.31987 8.27998 3.31987 8.67331 2.63987L8.74665 2.5132C9.19998 1.73987 10.1933 1.47987 10.9533 1.9332L12.1 2.5932C12.5066 2.82653 12.8 3.20653 12.9266 3.66653C13.0466 4.12653 12.9866 4.59987 12.7533 5.00653C12.56 5.34653 12.5066 5.6532 12.62 5.84653C12.7333 6.03987 13.02 6.1532 13.4133 6.1532C14.3866 6.1532 15.18 6.94653 15.18 7.91987V9.0932C15.18 10.0665 14.3866 10.8599 13.4133 10.8599C13.02 10.8599 12.7333 10.9732 12.62 11.1665C12.5066 11.3599 12.5533 11.6665 12.7533 12.0065C12.9866 12.4132 13.0533 12.8932 12.9266 13.3465C12.8066 13.8065 12.5133 14.1865 12.1 14.4199L10.9466 15.0799C10.6933 15.2199 10.42 15.2932 10.14 15.2932ZM7.99998 12.8265C8.59331 12.8265 9.14665 13.1999 9.52665 13.8599L9.59998 13.9865C9.67998 14.1265 9.81331 14.2265 9.97331 14.2665C10.1333 14.3065 10.2933 14.2865 10.4266 14.2065L11.58 13.5399C11.7533 13.4399 11.8866 13.2732 11.94 13.0732C11.9933 12.8732 11.9666 12.6665 11.8666 12.4932C11.4866 11.8399 11.44 11.1665 11.7333 10.6532C12.0266 10.1399 12.6333 9.84653 13.3933 9.84653C13.82 9.84653 14.16 9.50653 14.16 9.07987V7.90653C14.16 7.48653 13.82 7.13987 13.3933 7.13987C12.6333 7.13987 12.0266 6.84653 11.7333 6.3332C11.44 5.81987 11.4866 5.14653 11.8666 4.4932C11.9666 4.31987 11.9933 4.1132 11.94 3.9132C11.8866 3.7132 11.76 3.5532 11.5866 3.44653L10.4333 2.78653C10.1466 2.6132 9.76665 2.7132 9.59331 3.00653L9.51998 3.1332C9.13998 3.7932 8.58665 4.16653 7.99331 4.16653C7.39998 4.16653 6.84665 3.7932 6.46665 3.1332L6.39331 2.99987C6.22665 2.71987 5.85331 2.61987 5.56665 2.78653L4.41331 3.4532C4.23998 3.5532 4.10665 3.71987 4.05331 3.91987C3.99998 4.11987 4.02665 4.32653 4.12665 4.49987C4.50665 5.1532 4.55331 5.82653 4.25998 6.33987C3.96665 6.8532 3.35998 7.14653 2.59998 7.14653C2.17331 7.14653 1.83331 7.48653 1.83331 7.9132V9.08653C1.83331 9.50653 2.17331 9.8532 2.59998 9.8532C3.35998 9.8532 3.96665 10.1465 4.25998 10.6599C4.55331 11.1732 4.50665 11.8465 4.12665 12.4999C4.02665 12.6732 3.99998 12.8799 4.05331 13.0799C4.10665 13.2799 4.23331 13.4399 4.40665 13.5465L5.55998 14.2065C5.69998 14.2932 5.86665 14.3132 6.01998 14.2732C6.17998 14.2332 6.31331 14.1265 6.39998 13.9865L6.47331 13.8599C6.85331 13.2065 7.40665 12.8265 7.99998 12.8265Z" fill="white"/>
</svg>